<svg width="130" height="197" viewBox="0 0 130 197" fill="none" xmlns="http://www.w3.org/2000/svg">
<rect x="0.00512695" y="33.7341" width="50.7761" height="213.658" transform="rotate(-40.2268 0.00512695 33.7341)" fill="#ED3024"/>
<path d="M67.3348 64.6515C67.4783 64.8269 67.5345 65.0299 67.5033 65.2603C67.4881 65.4924 67.3927 65.6801 67.2172 65.8236C67.033 65.9743 66.8213 66.0376 66.5821 66.0136C66.3588 65.9912 66.1754 65.8923 66.0319 65.7168C65.8884 65.5414 65.8243 65.3376 65.8395 65.1056C65.8707 64.8751 65.9784 64.6846 66.1627 64.5339C66.3381 64.3904 66.5375 64.3299 66.7608 64.3523C67 64.3763 67.1913 64.476 67.3348 64.6515ZM68.6369 66.2439C68.7876 66.4281 68.8473 66.6355 68.8161 66.8659C68.8009 67.098 68.7056 67.2857 68.5301 67.4292C68.3459 67.5799 68.1341 67.6432 67.8949 67.6192C67.6716 67.5968 67.4847 67.4935 67.334 67.3092C67.1905 67.1338 67.1264 66.93 67.1416 66.698C67.1728 66.4675 67.2805 66.277 67.4648 66.1263C67.6402 65.9828 67.8396 65.9223 68.0629 65.9447C68.3021 65.9687 68.4934 66.0684 68.6369 66.2439ZM66.635 68.9788L61.6603 73.0465C61.5024 73.1757 61.4155 73.32 61.3995 73.4794C61.3763 73.6301 61.4042 73.7538 61.4831 73.8503L61.6983 74.1135L60.7639 74.8775L60.3119 74.3248C59.9819 73.9212 59.8736 73.4754 59.987 72.9874C59.1171 72.7471 58.4131 72.298 57.8751 71.64C57.1218 70.7187 56.886 69.6964 57.1679 68.5729C57.397 67.6536 57.9195 66.8603 58.7355 66.1931C59.6918 65.4111 60.7441 65.0777 61.8923 65.1929C62.9218 65.2881 63.7701 65.7437 64.4373 66.5596C64.8175 67.0246 65.096 67.5801 65.2728 68.2261L66.183 68.4261L66.635 68.9788ZM64.3516 68.9793C64.229 68.4355 64.0062 67.9661 63.6834 67.5713C63.1382 66.9045 62.4338 66.5802 61.5702 66.5982C60.8605 66.6076 60.2117 66.8526 59.6239 67.3333C58.922 67.9072 58.5055 68.5259 58.3746 69.1893C58.2715 69.8152 58.446 70.4046 58.8979 70.9573C59.2853 71.4311 59.8179 71.8228 60.4956 72.1323L64.3516 68.9793ZM69.5988 73.3285L64.7952 77.2564C64.69 77.3424 64.5739 77.4154 64.4471 77.4751L65.0175 78.1726L64.0831 78.9367L63.6634 78.4234L63.8119 77.6651L63.7796 77.6257C63.2789 77.6399 62.8742 77.4583 62.5657 77.0811L60.6933 74.7911L61.6277 74.0271L63.1558 75.8959C63.2706 76.0363 63.4077 76.1145 63.5672 76.1305C63.7498 76.1568 63.9156 76.109 64.0648 75.9871L68.6841 72.2099L69.5988 73.3285ZM60.3362 77.1474C60.4796 77.3229 60.5402 77.5222 60.5178 77.7455C60.4938 77.9847 60.3941 78.1761 60.2186 78.3195C60.0343 78.4702 59.827 78.53 59.5966 78.4988C59.3645 78.4836 59.1768 78.3882 59.0333 78.2127C58.8898 78.0373 58.83 77.8299 58.854 77.5907C58.8764 77.3674 58.9798 77.1805 59.164 77.0298C59.3395 76.8863 59.5432 76.8222 59.7753 76.8374C60.0057 76.8686 60.1927 76.9719 60.3362 77.1474ZM61.6383 78.7398C61.7889 78.9241 61.853 79.1278 61.8307 79.3511C61.8067 79.5903 61.7069 79.7816 61.5315 79.9251C61.3472 80.0758 61.1399 80.1355 60.9094 80.1044C60.6774 80.0891 60.486 79.9894 60.3354 79.8052C60.1919 79.6297 60.1321 79.4223 60.1561 79.1831C60.1785 78.9599 60.2819 78.7729 60.4661 78.6222C60.6416 78.4788 60.8453 78.4146 61.0774 78.4298C61.3078 78.461 61.4948 78.5643 61.6383 78.7398ZM72.9091 77.3769L68.1056 81.3047C68.0003 81.3908 67.8842 81.4638 67.7574 81.5235L68.3278 82.221L67.3934 82.9851L66.9737 82.4718L67.1222 81.7135L67.09 81.674C66.5892 81.6882 66.1845 81.5067 65.8761 81.1294L64.0036 78.8395L64.938 78.0755L66.4661 79.9443C66.5809 80.0847 66.718 80.1628 66.8775 80.1788C67.0601 80.2052 67.226 80.1574 67.3751 80.0354L71.9944 76.2583L72.9091 77.3769ZM64.9486 82.7882C65.0992 82.9724 65.1634 83.1762 65.141 83.3995C65.117 83.6387 65.0172 83.83 64.8418 83.9735C64.6575 84.1242 64.4502 84.1839 64.2197 84.1527C63.9877 84.1375 63.7963 84.0378 63.6457 83.8535C63.5022 83.6781 63.4425 83.4707 63.4665 83.2315C63.4888 83.0082 63.5922 82.8213 63.7764 82.6706C63.9519 82.5271 64.1556 82.463 64.3877 82.4782C64.6181 82.5094 64.8051 82.6127 64.9486 82.7882ZM76.2194 81.4253L71.4159 85.3531C71.0913 85.6186 70.7244 85.7429 70.3153 85.726C69.8497 85.7115 69.4733 85.5288 69.1864 85.1778L67.3139 82.8879L68.2483 82.1239L69.7764 83.9927C69.8984 84.1418 70.0514 84.2216 70.2356 84.232C70.3951 84.248 70.545 84.1986 70.6854 84.0838L75.3047 80.3067L76.2194 81.4253ZM66.8599 85.1257C67.0034 85.3012 67.064 85.5006 67.0416 85.7238C67.0176 85.963 66.9178 86.1544 66.7424 86.2979C66.5581 86.4485 66.3508 86.5083 66.1203 86.4771C65.8883 86.4619 65.7005 86.3665 65.5571 86.1911C65.4064 86.0068 65.3431 85.7951 65.3671 85.5559C65.3895 85.3326 65.4928 85.1456 65.677 84.995C65.8525 84.8515 66.0562 84.7874 66.2883 84.8026C66.5187 84.8338 66.7093 84.9415 66.8599 85.1257ZM68.162 86.7181C68.3127 86.9024 68.3768 87.1061 68.3544 87.3294C68.3233 87.5598 68.2199 87.7468 68.0445 87.8903C67.8602 88.0409 67.6565 88.1051 67.4332 88.0827C67.2012 88.0675 67.0098 87.9677 66.8592 87.7835C66.7157 87.608 66.6559 87.4007 66.6799 87.1614C66.7023 86.9382 66.8056 86.7512 66.9899 86.6006C67.1654 86.4571 67.3691 86.3929 67.6012 86.4082C67.8316 86.4393 68.0186 86.5427 68.162 86.7181ZM80.5355 86.7037L75.4161 90.8898L75.9649 91.5609L75.0305 92.325L74.4817 91.6538C73.3635 92.5242 72.2239 92.8046 71.0629 92.4949C70.1205 92.2554 69.2547 91.6531 68.4655 90.688C68.3436 90.5388 68.1937 90.3466 68.0159 90.1113L68.2004 89.2358L68.6215 88.8914C68.7945 89.1746 69.0029 89.4653 69.2469 89.7636C70.653 91.4832 72.1457 91.6974 73.7249 90.406L79.6208 85.585L80.5355 86.7037ZM82.2152 89.2145C83.1297 89.8136 83.8739 90.4641 84.4478 91.166C85.3374 92.2539 85.6776 93.3592 85.4683 94.4819C85.291 95.4467 84.733 96.313 83.7942 97.0806L82.1228 98.4473C82.0175 98.5334 81.9015 98.6063 81.7747 98.6661L82.1513 99.1267L81.2169 99.8907L80.9909 99.6143L81.1502 98.8692L81.118 98.8297C80.61 98.8352 80.2054 98.6536 79.9041 98.2851L74.9539 92.2313L75.8883 91.4673L80.4833 97.0868C80.7559 97.4202 81.059 97.4506 81.3924 97.178L82.919 95.9297C83.6033 95.3701 83.9958 94.749 84.0965 94.0665C84.2123 93.313 83.9618 92.5589 83.3448 91.8044C82.9718 91.3482 82.3013 90.7252 81.3335 89.9355L82.2152 89.2145ZM76.297 96.6669C76.4477 96.8512 76.5118 97.0549 76.4894 97.2782C76.4655 97.5174 76.3657 97.7088 76.1902 97.8522C76.006 98.0029 75.7987 98.0626 75.5682 98.0315C75.3362 98.0163 75.1448 97.9165 74.9942 97.7323C74.8507 97.5568 74.7909 97.3495 74.8149 97.1102C74.8373 96.887 74.9406 96.7 75.1249 96.5494C75.3004 96.4059 75.5041 96.3417 75.7362 96.357C75.9666 96.3881 76.1536 96.4914 76.297 96.6669ZM91.2012 93.8391C91.3519 94.0233 91.4116 94.2307 91.3804 94.4611C91.358 94.6844 91.2591 94.8678 91.0836 95.0113C90.8994 95.1619 90.6912 95.2296 90.4592 95.2144C90.2359 95.192 90.049 95.0887 89.8983 94.9045C89.7548 94.729 89.6907 94.5252 89.7059 94.2932C89.7371 94.0627 89.8448 93.8722 90.029 93.7215C90.2045 93.5781 90.4039 93.5175 90.6272 93.5399C90.8664 93.5639 91.0577 93.6636 91.2012 93.8391ZM92.5141 95.4447C92.6575 95.6201 92.7137 95.8231 92.6825 96.0535C92.6673 96.2856 92.572 96.4734 92.3965 96.6168C92.2122 96.7675 92.0005 96.8308 91.7613 96.8068C91.538 96.7844 91.3547 96.6855 91.2112 96.51C91.0605 96.3258 90.9928 96.1176 91.008 95.8856C91.0392 95.6552 91.1469 95.4646 91.3311 95.3139C91.5066 95.1705 91.706 95.1099 91.9293 95.1323C92.1685 95.1563 92.3634 95.2604 92.5141 95.4447ZM90.0492 98.3385L85.2456 102.266C84.921 102.532 84.5542 102.656 84.1451 102.639C83.6794 102.625 83.3031 102.442 83.0161 102.091L81.1437 99.8012L82.0781 99.0371L83.6062 100.906C83.7281 101.055 83.8812 101.135 84.0654 101.145C84.2249 101.161 84.3748 101.112 84.5152 100.997L89.1345 97.2199L90.0492 98.3385ZM99.0403 103.426C99.1838 103.601 99.2399 103.804 99.2088 104.035C99.1935 104.267 99.0982 104.455 98.9227 104.598C98.7385 104.749 98.5267 104.812 98.2875 104.788C98.0643 104.766 97.8809 104.667 97.7374 104.491C97.5939 104.316 97.5298 104.112 97.545 103.88C97.5762 103.65 97.6839 103.459 97.8681 103.308C98.0436 103.165 98.243 103.104 98.4662 103.127C98.7054 103.151 98.8968 103.251 99.0403 103.426ZM100.342 105.018C100.493 105.203 100.553 105.41 100.522 105.64C100.506 105.872 100.411 106.06 100.236 106.204C100.051 106.354 99.8396 106.418 99.6004 106.394C99.3771 106.371 99.1901 106.268 99.0395 106.084C98.896 105.908 98.8319 105.705 98.8471 105.472C98.8783 105.242 98.986 105.051 99.1702 104.901C99.3457 104.757 99.5451 104.697 99.7683 104.719C100.008 104.743 100.199 104.843 100.342 105.018ZM98.3405 107.753L93.3658 111.821C93.2079 111.95 93.1209 112.094 93.1049 112.254C93.0818 112.405 93.1096 112.528 93.1886 112.625L93.4038 112.888L92.4694 113.652L92.0174 113.099C91.6874 112.696 91.5791 112.25 91.6925 111.762C90.8226 111.522 90.1186 111.073 89.5805 110.414C88.8272 109.493 88.5915 108.471 88.8733 107.347C89.1025 106.428 89.625 105.635 90.4409 104.968C91.3973 104.186 92.4496 103.852 93.5978 103.967C94.6272 104.063 95.4755 104.518 96.1427 105.334C96.5229 105.799 96.8015 106.355 96.9783 107.001L97.8885 107.201L98.3405 107.753ZM96.0571 107.754C95.9344 107.21 95.7117 106.741 95.3889 106.346C94.8436 105.679 94.1392 105.355 93.2756 105.373C92.5659 105.382 91.9172 105.627 91.3293 106.108C90.6274 106.682 90.211 107.3 90.08 107.964C89.977 108.59 90.1514 109.179 90.6034 109.732C90.9908 110.206 91.5234 110.597 92.2011 110.907L96.0571 107.754ZM104.748 110.407C104.899 110.591 104.959 110.798 104.928 111.029C104.905 111.252 104.806 111.435 104.631 111.579C104.447 111.73 104.238 111.797 104.006 111.782C103.783 111.76 103.596 111.656 103.446 111.472C103.302 111.297 103.238 111.093 103.253 110.861C103.284 110.63 103.392 110.44 103.576 110.289C103.752 110.146 103.951 110.085 104.174 110.108C104.414 110.132 104.605 110.231 104.748 110.407ZM99.6601 110.549C100.575 111.148 101.319 111.798 101.893 112.5C102.782 113.588 103.122 114.694 102.913 115.816C102.736 116.781 102.178 117.647 101.239 118.415L99.5676 119.782C99.4624 119.868 99.3463 119.941 99.2195 120L99.5961 120.461L98.6618 121.225L98.4358 120.949L98.5951 120.204L98.5628 120.164C98.0548 120.169 97.6502 119.988 97.3489 119.619L92.3988 113.566L93.3332 112.802L97.9282 118.421C98.2008 118.755 98.5038 118.785 98.8372 118.512L100.364 117.264C101.048 116.704 101.441 116.083 101.541 115.401C101.657 114.647 101.407 113.893 100.79 113.139C100.417 112.683 99.7462 112.06 98.7783 111.27L99.6601 110.549ZM114.876 128.701L110.073 132.629C109.959 132.722 109.843 132.795 109.724 132.848L110.306 133.558L109.371 134.322L108.941 133.796L109.1 133.051L109.068 133.011C108.56 133.017 108.155 132.835 107.854 132.467L105.734 129.874L105.893 129.129L105.861 129.089C105.353 129.095 104.948 128.913 104.647 128.545L102.527 125.952L102.686 125.207L102.654 125.168C102.146 125.173 101.742 124.992 101.44 124.623L98.5885 121.135L99.5229 120.371L102.02 123.425C102.292 123.758 102.595 123.788 102.929 123.516L106.034 120.976L106.949 122.095L103.659 124.785C103.545 124.878 103.432 124.956 103.322 125.017L105.226 127.346C105.499 127.68 105.802 127.71 106.135 127.438L110.005 124.274L110.919 125.393L106.866 128.707C106.752 128.8 106.636 128.873 106.518 128.926L108.433 131.268C108.706 131.602 109.009 131.632 109.342 131.359L113.961 127.582L114.876 128.701ZM120.625 129.823C120.775 130.007 120.835 130.214 120.804 130.445C120.789 130.677 120.693 130.865 120.518 131.008C120.334 131.159 120.122 131.222 119.883 131.198C119.659 131.176 119.472 131.072 119.322 130.888C119.178 130.713 119.114 130.509 119.129 130.277C119.161 130.047 119.268 129.856 119.453 129.705C119.628 129.562 119.827 129.501 120.051 129.524C120.29 129.548 120.481 129.647 120.625 129.823ZM118.192 132.756L113.389 136.684C113.064 136.949 112.697 137.074 112.288 137.057C111.822 137.042 111.446 136.86 111.159 136.509L109.287 134.219L110.221 133.455L111.749 135.324C111.871 135.473 112.024 135.553 112.208 135.563C112.368 135.579 112.518 135.53 112.658 135.415L117.277 131.638L118.192 132.756Z" fill="#FAFAFA"/>
</svg>
