<svg width="141" height="34" viewBox="0 0 141 34" fill="none" xmlns="http://www.w3.org/2000/svg">
<path d="M131.875 33H2L9.76413 26.3606V8.78695C9.76413 4.48681 13.2509 1 17.5511 1H131.875C136.175 1 139.662 4.48681 139.662 8.78695V25.2117C139.662 29.5132 136.176 33 131.875 33Z" fill="white" stroke="#FFAF44" stroke-miterlimit="10"/>
<path d="M31.992 10.4473L33.5032 14.3931L37.7228 14.6105C38.5643 14.6535 38.9093 15.7138 38.253 16.2439L34.9661 18.8999L36.064 22.9799C36.2827 23.7946 35.3822 24.4496 34.6749 23.9892L31.133 21.6848L27.5912 23.9892C26.8839 24.4496 25.9833 23.7946 26.2021 22.9799L27.3 18.8999L24.0145 16.2439C23.3582 15.7138 23.7031 14.6535 24.5446 14.6105L28.7642 14.3931L30.2754 10.4473C30.5774 9.65949 31.6914 9.65949 31.992 10.4473Z" fill="#FFAF44"/>
<path d="M53.7824 10.4473L55.2936 14.3931L59.5132 14.6105C60.356 14.6535 60.6997 15.7138 60.0434 16.2439L56.7579 18.8999L57.8544 22.9799C58.0731 23.7946 57.1726 24.4496 56.4653 23.9892L52.9235 21.6848L49.3816 23.9892C48.6743 24.4496 47.7737 23.7946 47.9925 22.9799L49.0904 18.8999L45.8035 16.2439C45.1472 15.7138 45.4922 14.6535 46.3337 14.6105L50.5533 14.3931L52.0645 10.4473C52.3665 9.65949 53.4804 9.65949 53.7824 10.4473Z" fill="#FFAF44"/>
<path d="M75.5719 10.4473L77.0831 14.3931L81.3028 14.6105C82.1443 14.6535 82.4892 15.7138 81.8329 16.2439L78.546 18.8999L79.6439 22.9799C79.8627 23.7946 78.9621 24.4496 78.2548 23.9892L74.713 21.6848L71.1711 23.9892C70.4638 24.4496 69.5633 23.7946 69.782 22.9799L70.8799 18.8999L67.5931 16.2439C66.9368 15.7138 67.2817 14.6535 68.1232 14.6105L72.3428 14.3931L73.854 10.4473C74.156 9.65949 75.27 9.65949 75.5719 10.4473Z" fill="#FFAF44"/>
<path d="M97.3612 10.4473L98.8725 14.3931L103.092 14.6105C103.935 14.6535 104.279 15.7138 103.622 16.2439L100.337 18.8999L101.435 22.9799C101.653 23.7946 100.753 24.4496 100.045 23.9892L96.5036 21.6848L92.9618 23.9892C92.2545 24.4496 91.354 23.7946 91.5727 22.9799L92.6706 18.8999L89.3851 16.2439C88.7288 15.7138 89.0737 14.6535 89.9152 14.6105L94.1348 14.3931L95.646 10.4473C95.9467 9.65949 97.0606 9.65949 97.3612 10.4473Z" fill="#FFAF44"/>
<path d="M118.293 11.9563L119.41 14.8713L119.722 15.6873L120.595 15.733L123.713 15.894L121.285 17.8562L120.606 18.4051L120.832 19.2479L121.643 22.2623L119.027 20.5605L118.296 20.0841L117.564 20.5605L114.949 22.2623L115.759 19.2479L115.986 18.4051L115.307 17.8562L112.879 15.894L115.997 15.733L116.869 15.6873L117.182 14.8713L118.293 11.9563ZM118.293 9.85449C117.939 9.85449 117.586 10.0518 117.434 10.445L115.923 14.3908L111.703 14.6082C110.862 14.6512 110.517 15.7115 111.173 16.2416L114.459 18.8977L113.361 22.9777C113.192 23.6058 113.69 24.1386 114.251 24.1386C114.417 24.1386 114.589 24.0916 114.75 23.9869L118.292 21.6825L121.834 23.9869C121.995 24.0916 122.166 24.1386 122.333 24.1386C122.894 24.1386 123.392 23.6058 123.223 22.9777L122.125 18.8977L125.412 16.2416C126.068 15.7115 125.723 14.6512 124.881 14.6082L120.662 14.3908L119.151 10.445C119 10.0518 118.647 9.85449 118.293 9.85449Z" fill="#FFAF44"/>
</svg>
